<svg width="97" height="328" fill="none" xmlns="http://www.w3.org/2000/svg"><path d="M76.4 80.82H17V62.55h20.61l19.98.27v-.27L17 51.03V34.29l40.59-11.34v-.36l-19.98.27H17V4.5h59.4v29.34l-26.37 6.84-11.07 2.61v.18l11.07 2.61 26.37 6.84v27.9zm0 29.992H17v-20.97h59.4v20.97zm0 67.141H17v-22.681l27-14.22 7.29-3.24v-.18l-12.24.36H17v-18.18h59.4v22.681l-27.09 14.219-7.2 3.24v.18l12.24-.36 22.05.001v18.18zM17 245.371v-21.42l11.34-2.7v-16.02L17 202.441v-20.88l59.4 19.26v25.2L17 245.371zm24.39-36.99v9.81l20.61-4.86-20.61-4.95zm35.91 66.641c0 5.7-.72 10.8-2.16 15.3-1.38 4.56-3.48 8.58-6.3 12.06l-13.5-8.46a41.21 41.21 0 0 0 4.77-8.91c1.2-3.06 1.8-6.39 1.8-9.99 0-1.56-.12-2.82-.36-3.78-.24-.9-.57-1.56-.99-1.98-.42-.36-.9-.54-1.44-.54-.72 0-1.26.54-1.62 1.62-.36 1.14-.75 2.55-1.17 4.23l-1.89 8.19c-1.38 6.06-3.42 10.62-6.12 13.68-2.7 3.12-6.45 4.68-11.25 4.68s-8.76-1.17-11.88-3.51c-3.06-2.34-5.34-5.52-6.84-9.54-1.5-3.96-2.25-8.46-2.25-13.5 0-3.78.33-7.56.99-11.34.72-3.78 1.74-7.29 3.06-10.53 1.38-3.24 3.03-6.03 4.95-8.37l13.77 8.28c-1.38 1.74-2.64 3.84-3.78 6.3a47.884 47.884 0 0 0-2.61 7.65c-.66 2.64-.99 5.1-.99 7.38 0 1.44.12 2.58.36 3.42.24.84.54 1.41.9 1.71.42.36.9.54 1.44.54.84 0 1.47-.36 1.89-1.08.42-.66.84-1.89 1.26-3.69l1.98-9c.72-3.18 1.68-6.21 2.88-9.09s2.94-5.22 5.22-7.02c2.34-1.8 5.49-2.7 9.45-2.7 4.08 0 7.65 1.08 10.71 3.24 3.06 2.22 5.43 5.4 7.11 9.54 1.74 4.2 2.61 9.27 2.61 15.21zM88.57 13.162c-.67 0-1.265-.171-1.785-.513-.52-.337-.923-.82-1.21-1.45-.282-.628-.424-1.36-.424-2.194v-.902H82V5.15h9.803v4.02c0 1.38-.262 2.39-.786 3.028-.524.642-1.34.964-2.448.964zm-.103-3.124c.4 0 .704-.117.909-.349.205-.232.308-.574.308-1.025v-.561h-2.42v.663c0 .848.4 1.272 1.203 1.272zM82 14.338h9.803v6.104h-2.31V17.29h-1.43v2.96h-2.31v-2.96H84.31v3.377H82v-6.33zm5.024 16.966c-.993 0-1.873-.21-2.638-.629a4.294 4.294 0 0 1-1.764-1.784c-.415-.775-.622-1.668-.622-2.68v-4.149h9.803v4.06c0 3.455-1.593 5.182-4.779 5.182zm-.027-3.137c.479 0 .91-.099 1.292-.294a2.08 2.08 0 0 0 .889-.828c.21-.36.314-.783.314-1.271v-.759h-5.181v.827c0 .707.241 1.27.724 1.689.488.424 1.142.636 1.962.636zM82 38.83l1.805-.431v-2.926L82 35.01v-3.192l9.803 3.377v3.664L82 42.037V38.83zm7.67-1.86v-.068c-.11-.01-.29-.041-.54-.096-.25-.055-1.326-.33-3.227-.827v1.873l2.666-.684a8.423 8.423 0 0 1 1.1-.198zM82 43.185h9.803v2.953H84.31v3.377H82v-6.33zm0 13.72 1.805-.43v-2.927L82 53.083v-3.192l9.803 3.377v3.664L82 60.111v-3.206zm7.67-1.86v-.068c-.11-.01-.29-.041-.54-.096-.25-.054-1.326-.33-3.227-.827v1.873l2.666-.683a8.425 8.425 0 0 1 1.1-.199zM82 68.11l4.73-3.46c.374-.273.711-.496 1.012-.669v-.027a28.98 28.98 0 0 1-1.627.04H82V61.26h9.803v2.79l-4.498 3.315c-.06.04-.13.09-.212.15-.082.06-.167.119-.253.178-.087.06-.171.114-.253.164a1.403 1.403 0 0 1-.219.123v.027c.2-.027.547-.04 1.04-.04h4.395V70.7H82v-2.591zm5.024 13.767c-.993 0-1.873-.21-2.638-.628a4.295 4.295 0 0 1-1.764-1.785c-.415-.774-.622-1.668-.622-2.68v-4.149h9.803v4.06c0 3.455-1.593 5.182-4.779 5.182zm-.027-3.137c.479 0 .91-.098 1.292-.294a2.08 2.08 0 0 0 .889-.827c.21-.36.314-.784.314-1.272v-.759h-5.181v.828c0 .706.241 1.269.724 1.688.488.424 1.142.636 1.962.636zm-.068 13.843c-.985 0-1.867-.212-2.646-.636a4.562 4.562 0 0 1-1.811-1.778c-.429-.76-.643-1.613-.643-2.556 0-.92.208-1.76.622-2.516a4.46 4.46 0 0 1 1.757-1.757c.757-.419 1.611-.629 2.564-.629.997 0 1.895.212 2.693.636a4.493 4.493 0 0 1 1.846 1.784c.437.766.656 1.636.656 2.612 0 .938-.21 1.777-.63 2.515a4.21 4.21 0 0 1-1.783 1.716c-.77.406-1.645.609-2.625.609zm-.082-3.131c.806 0 1.442-.155 1.907-.465.465-.31.697-.734.697-1.272 0-.588-.223-1.046-.67-1.374-.446-.328-1.078-.492-1.893-.492-.798 0-1.42.162-1.867.486-.446.328-.67.772-.67 1.332 0 .342.1.65.301.923.2.274.488.486.862.636.373.15.818.226 1.333.226zM82 97.873h9.803v6.104h-2.31v-3.151h-1.43v2.96h-2.31v-2.96H84.31v3.377H82v-6.33zm0 16.7h5.373c.506 0 1.062.016 1.668.048l.451.02v-.082a27.698 27.698 0 0 1-1.6-.335L82 112.782v-2.776l5.824-1.51c.146-.041.702-.149 1.668-.322v-.082c-1.531.064-2.488.096-2.87.096H82v-2.591h9.803v4.423l-5.325 1.347a6.18 6.18 0 0 1-.67.123c-.333.054-.59.089-.773.102v.041c.415.05.905.13 1.47.24l5.298 1.257v4.355H82v-2.912z" fill="#6D4C41"/></svg>