<svg width="40" height="40" viewBox="0 0 40 40" fill="none" xmlns="http://www.w3.org/2000/svg">
<path d="M20.2929 10.7929C20.6834 10.4024 21.3166 10.4024 21.7071 10.7929L28.0711 17.1569C28.4616 17.5474 28.4616 18.1805 28.0711 18.5711C27.6805 18.9616 27.0474 18.9616 26.6569 18.5711L21 12.9142L15.3431 18.5711C14.9526 18.9616 14.3195 18.9616 13.9289 18.5711C13.5384 18.1805 13.5384 17.5474 13.9289 17.1569L20.2929 10.7929ZM20 34L20 11.5L22 11.5L22 34L20 34Z" fill="white"/>
<line y1="-1" x2="15" y2="-1" transform="matrix(1 0 0 -1 13 7)" stroke="white" stroke-width="2" stroke-linejoin="bevel"/>
</svg>
