<svg width="40" height="40" viewBox="0 0 40 40" fill="none" xmlns="http://www.w3.org/2000/svg">
<path d="M28.7386 14.1304C28.2862 13.8136 27.6627 13.9236 27.3459 14.376L22.1837 21.7483C21.867 22.2008 21.9769 22.8243 22.4293 23.1411C22.8817 23.4579 23.5053 23.3479 23.822 22.8955L28.4106 16.3423L34.9639 20.9309C35.4163 21.2477 36.0398 21.1377 36.3566 20.6853C36.6734 20.2329 36.5634 19.6094 36.111 19.2926L28.7386 14.1304ZM29.3955 16.1686L29.1499 14.7759L27.1803 15.1232L27.4258 16.5159L29.3955 16.1686Z" fill="white"/>
<path fill-rule="evenodd" clip-rule="evenodd" d="M20 9.0117C19.8343 9.00393 19.6676 9 19.5 9C13.701 9 9 13.701 9 19.5C9 25.299 13.701 30 19.5 30C25.299 30 30 25.299 30 19.5C30 17.8693 29.6283 16.3254 28.9649 14.9485L27.2264 15.9522C27.7231 17.0319 28 18.2336 28 19.5C28 24.1944 24.1944 28 19.5 28C14.8056 28 11 24.1944 11 19.5C11 14.8056 14.8056 11 19.5 11C19.6678 11 19.8346 11.0049 20 11.0145V9.0117Z" fill="white"/>
</svg>
