<svg width="32" height="23" viewBox="0 0 32 23" fill="none" xmlns="http://www.w3.org/2000/svg">
<path d="M27.6997 0.266602H4.73769C2.59634 0.266602 0.854126 2.00881 0.854126 4.15017V18.892C0.854126 21.0333 2.59634 22.7755 4.73769 22.7755H27.6997C29.8411 22.7755 31.5833 21.0333 31.5833 18.892V4.15017C31.5833 2.00881 29.8411 0.266602 27.6997 0.266602ZM27.093 2.7717L16.2187 11.1719L5.34443 2.7717H27.093ZM27.6997 20.2706H4.73769C3.97765 20.2706 3.35922 19.6522 3.35922 18.8921V4.40368L15.453 13.746C15.6784 13.9202 15.9487 14.0072 16.2187 14.0072C16.4888 14.0072 16.759 13.9202 16.9844 13.746L29.0782 4.40368V18.892C29.0782 19.6522 28.4598 20.2706 27.6997 20.2706Z" fill="white"/>
</svg>
