<svg width="28" height="28" viewBox="0 0 28 28" fill="none" xmlns="http://www.w3.org/2000/svg">
  <path d="M19.7258 16.1205L19.7157 16.205C17.238 14.9701 16.9788 14.8056 16.6588 15.2856C16.4369 15.618 15.7901 16.3717 15.5952 16.5948C15.398 16.8146 15.202 16.8315 14.8673 16.6793C14.5293 16.5103 13.4442 16.1554 12.1598 15.0061C11.1592 14.1104 10.4877 13.0118 10.2894 12.6738C9.95925 12.1037 10.6499 12.0225 11.2787 10.8327C11.3913 10.5961 11.3339 10.4102 11.2505 10.2423C11.166 10.0733 10.4933 8.41699 10.2116 7.75672C9.94123 7.09871 9.66292 7.18209 9.45448 7.18209C8.80548 7.12575 8.33112 7.13476 7.9131 7.56968C6.09455 9.56851 6.55313 11.6304 8.10915 13.8231C11.1671 17.8252 12.7964 18.5621 15.7755 19.5852C16.58 19.841 17.3135 19.8049 17.8937 19.7215C18.5405 19.619 19.8847 18.9092 20.1652 18.1148C20.4525 17.3205 20.4525 16.6613 20.368 16.5092C20.2847 16.3571 20.0638 16.2726 19.7258 16.1205Z" fill="white"/>
  <path d="M23.1206 3.8866C14.4572 -4.48843 0.119434 1.5858 0.1138 13.4008C0.1138 15.7624 0.732378 18.0654 1.91094 20.0992L0 27.0422L7.13787 25.1808C16.0447 29.992 27.0372 23.6034 27.0417 13.4075C27.0417 9.82901 25.6445 6.46119 23.1037 3.93054L23.1206 3.8866ZM24.7904 13.3703C24.7837 21.9707 15.3428 27.3419 7.87588 22.9521L7.47026 22.711L3.245 23.8096L4.37737 19.7026L4.10808 19.2801C-0.53858 11.883 4.7999 2.21565 13.602 2.21565C16.5923 2.21565 19.399 3.38182 21.5128 5.49445C23.6254 7.58906 24.7904 10.3958 24.7904 13.3703Z" fill="white"/>
</svg>
