<svg width="83" height="83" viewBox="0 0 83 83" fill="none" xmlns="http://www.w3.org/2000/svg">
<g clip-path="url(#clip0)">
<rect width="83" height="83" fill="white"/>
<path d="M14.2715 67.3197C14.9334 67.4364 15.5642 66.9963 15.6816 66.3352C15.7994 65.6739 15.3584 65.0425 14.6972 64.9251C7.59053 63.6617 2.43234 57.4966 2.43234 50.2659C2.43234 42.0556 9.11171 35.3762 17.322 35.3762C19.2802 35.3762 21.1511 35.7569 22.8653 36.4471L22.1231 37.9328C20.6335 37.3508 19.0152 37.0278 17.322 37.0278C10.0225 37.0278 4.08406 42.9663 4.08406 50.2659C4.08406 57.5653 10.0225 63.5038 17.322 63.5038C24.2112 63.5038 29.8855 58.2133 30.5017 51.482H32.1604C31.6193 58.1783 26.6513 63.7333 19.9468 64.9251C19.2855 65.0427 18.8446 65.6739 18.9624 66.3352C19.0671 66.9246 19.5799 67.3386 20.1583 67.3386C20.229 67.3386 20.3006 67.3325 20.3725 67.3197C27.1853 66.1085 32.4554 61.0259 34.1021 54.5698C34.8613 55.2698 35.8052 55.772 36.8516 55.994V58.4794H35.7862C35.1144 58.4794 34.5701 59.0238 34.5701 59.6956C34.5701 60.3674 35.1144 60.9117 35.7862 60.9117H40.3493C41.0211 60.9117 41.5655 60.3674 41.5655 59.6956C41.5655 59.0238 41.0211 58.4794 40.3493 58.4794H39.2841V55.994C41.9313 55.4325 43.9239 53.0778 43.9239 50.2657C43.9239 48.9552 43.4911 47.7439 42.761 46.7672L57.1462 30.8342L58.5173 34.5053C52.5415 37.24 48.3793 43.2758 48.3793 50.2657C48.3793 59.817 56.1499 67.5877 65.7013 67.5877C75.2526 67.5877 83.0233 59.817 83.0233 50.2657C83.0233 40.7144 75.2526 32.9437 65.7013 32.9437C63.9978 32.9437 62.3514 33.1921 60.7952 33.6525L56.6319 22.5041H63.5997C64.0803 23.6742 65.231 24.501 66.5722 24.501C66.8325 24.501 67.0442 24.7128 67.0442 24.9731C67.0442 25.2333 66.8325 25.4451 66.5722 25.4451H65.0919C63.3202 25.4451 61.8788 26.8867 61.8788 28.6582C61.8788 30.4298 63.3203 31.8712 65.0919 31.8712H66.5722C70.3761 31.8712 73.4706 28.7766 73.4706 24.9729C73.4706 21.1692 70.3761 18.0746 66.5722 18.0746C65.231 18.0746 64.0803 18.9015 63.5997 20.0714H54.8794C54.0479 20.0714 53.4398 20.9059 53.7401 21.7131L54.9737 25.0161H30.1712L29.3969 22.9427C29.8902 22.6366 30.31 22.2104 30.6061 21.6896C30.8009 21.3466 31.167 21.1334 31.5617 21.1334H36.7332C38.1644 21.1334 39.1394 19.6816 38.6003 18.357L38.6001 18.3568C37.7692 16.3177 35.8094 15 33.6073 15H21.1481C19.4865 15 18.1347 16.3519 18.1347 18.0135C18.1347 21.0257 20.5854 23.4764 23.5978 23.4764H26.9998L28.0027 26.162L23.9553 34.2645C21.9112 33.4138 19.6707 32.9432 17.3222 32.9432C7.77068 32.9439 0 40.7146 0 50.2659C0 58.6776 6.00204 65.8497 14.2715 67.3197V67.3197ZM65.7013 35.3762C73.9115 35.3762 80.5909 42.0556 80.5909 50.2659C80.5909 58.4762 73.9115 65.1555 65.7013 65.1555C57.491 65.1555 50.8116 58.4762 50.8116 50.2659C50.8116 44.3181 54.3174 39.1746 59.3708 36.791L59.9507 38.3437C55.5237 40.4877 52.4635 45.026 52.4635 50.2659C52.4635 57.5653 58.402 63.5038 65.7014 63.5038C71.8338 63.5038 77.1235 59.3448 78.5653 53.3898C78.7234 52.7371 78.3224 52.0797 77.6695 51.9216C77.0165 51.7631 76.3595 52.1647 76.2013 52.8174C75.0247 57.6772 70.707 61.0713 65.7014 61.0713C59.7433 61.0713 54.8958 56.2238 54.8958 50.2657C54.8958 46.0686 57.3027 42.4255 60.8072 40.6369L63.4014 47.5833C62.6456 48.2323 62.1653 49.1937 62.1653 50.2659C62.1653 52.2156 63.7515 53.802 65.7014 53.802C67.6513 53.802 69.2377 52.2158 69.2377 50.2659C69.2377 48.3159 67.6513 46.7297 65.7014 46.7297C65.694 46.7297 65.6867 46.7302 65.6794 46.7302L63.0847 39.7822C63.9231 39.5728 64.7992 39.4599 65.7016 39.4599C70.7072 39.4599 75.0249 42.8542 76.2015 47.714C76.3596 48.3665 77.0165 48.7677 77.6697 48.6098C78.3225 48.4517 78.7235 47.7944 78.5654 47.1416C77.1237 41.1864 71.8338 37.0274 65.7016 37.0274C64.5002 37.0274 63.337 37.1912 62.2298 37.4925L61.6488 35.9365C62.9373 35.5718 64.2968 35.3762 65.7013 35.3762V35.3762ZM65.7013 49.1622C66.31 49.1622 66.8052 49.6575 66.8052 50.266C66.8052 50.8746 66.31 51.3698 65.7013 51.3698C65.0927 51.3698 64.5975 50.8746 64.5975 50.266C64.5975 49.6575 65.0927 49.1622 65.7013 49.1622ZM25.04 37.5368C29.0097 39.9527 31.7656 44.1728 32.1617 49.0499H30.5017C30.1143 44.8187 27.7287 41.1585 24.298 39.0221L25.04 37.5368ZM20.6426 49.0497C20.4759 48.5961 20.2181 48.1864 19.8927 47.8415L23.2055 41.2095C25.8441 42.9296 27.6881 45.7688 28.0574 49.0497H20.6426ZM17.322 49.1622C17.9306 49.1622 18.4258 49.6575 18.4258 50.266C18.4258 50.8746 17.9306 51.3698 17.322 51.3698C16.7133 51.3698 16.218 50.8746 16.218 50.266C16.218 49.6575 16.7133 49.1622 17.322 49.1622ZM17.322 61.0715C11.3639 61.0715 6.5164 56.224 6.5164 50.2659C6.5164 44.3076 11.3639 39.4601 17.322 39.4601C18.6249 39.4601 19.8747 39.692 21.0323 40.1165L17.7173 46.7524C17.5874 46.7378 17.4556 46.7297 17.322 46.7297C15.3722 46.7297 13.7857 48.3159 13.7857 50.2659C13.7857 52.2158 15.3721 53.802 17.322 53.802C18.8446 53.802 20.1456 52.8346 20.6426 51.482H28.0574C27.4507 56.8695 22.8689 61.0715 17.322 61.0715V61.0715ZM39.2841 53.4624V50.2659C39.2841 49.5941 38.7397 49.0497 38.0679 49.0497C37.3961 49.0497 36.8517 49.5941 36.8517 50.2659V53.4624C35.5633 52.9705 34.6442 51.7251 34.6442 50.2659C34.6442 48.378 36.1801 46.8423 38.0679 46.8423C39.9557 46.8423 41.4915 48.3782 41.4915 50.2659C41.4915 51.7251 40.5724 52.9705 39.2841 53.4624ZM66.5722 20.5075C69.0349 20.5075 71.0383 22.5107 71.0383 24.9734C71.0383 27.4361 69.0349 29.4393 66.5722 29.4393H65.0919C64.6614 29.4393 64.3111 29.0891 64.3111 28.6587C64.3111 28.2282 64.6614 27.8779 65.0919 27.8779H66.5722C68.1737 27.8779 69.4766 26.575 69.4766 24.9736C69.4766 23.3721 68.1737 22.0692 66.5722 22.0692C66.1417 22.0692 65.7914 21.7189 65.7914 21.2884C65.7914 20.8577 66.1417 20.5075 66.5722 20.5075ZM55.8819 27.4489L56.1874 28.2668L40.9337 45.1618C40.086 44.684 39.1086 44.4099 38.0681 44.4099C37.8514 44.4099 37.6379 44.4226 37.4272 44.4458L31.0798 27.449H55.8819V27.4489ZM20.5669 18.0142C20.5669 17.6936 20.8275 17.433 21.1479 17.433H33.6072C34.5942 17.433 35.4926 17.9154 36.0371 18.7017H31.5616C30.2938 18.7017 29.1174 19.3865 28.4911 20.4885C28.2962 20.8316 27.9299 21.0449 27.5352 21.0449H23.5974C21.9266 21.0447 20.5669 19.6852 20.5669 18.0142V18.0142ZM29.1659 29.2774L35.1165 45.2113C34.7517 45.4252 34.4118 45.6767 34.1027 45.9616C32.9485 41.4644 30.0285 37.668 26.1297 35.3559L29.1659 29.2774Z" fill="#00323F"/>
</g>
<defs>
<clipPath id="clip0">
<rect width="83" height="83" fill="white"/>
</clipPath>
</defs>
</svg>