<svg width="83" height="83" viewBox="0 0 83 83" fill="none" xmlns="http://www.w3.org/2000/svg">
<rect width="83" height="83" fill="white"/>
<path d="M67.9037 35.4709L60.6405 20.1091C59.9229 18.5917 59.1094 17.7821 57.5313 17.0153L49.5119 13.1188C49.2593 12.9961 48.969 12.9673 48.6959 13.038C43.117 14.4822 39.8908 14.4821 34.3122 13.038C34.0391 12.9672 33.7486 12.9961 33.4962 13.1188L25.477 17.0153C23.8988 17.7821 23.0852 18.5917 22.3677 20.1092L15.1044 35.4709C14.8639 35.9794 15.051 36.5813 15.5418 36.8776L24.2193 42.1171V68.8867C24.2193 69.5016 24.7353 70 25.3716 70H57.6367C58.273 70 58.789 69.5016 58.789 68.8867V42.1171L67.4664 36.8776C67.957 36.5813 68.1442 35.9794 67.9037 35.4709V35.4709ZM47.6339 15.5901C46.9196 17.9767 44.4424 19.7424 41.504 19.7424C38.5656 19.7424 36.0886 17.9767 35.3742 15.5902C39.8689 16.5984 43.1389 16.5985 47.6339 15.5901V15.5901ZM58.7889 39.4914V32.5935C58.7889 31.9787 58.2729 31.4803 57.6366 31.4803C57.0003 31.4803 56.4842 31.9787 56.4842 32.5935V67.7734H26.5239V32.5935C26.5239 31.9787 26.0079 31.4803 25.3715 31.4803C24.7352 31.4803 24.2192 31.9787 24.2192 32.5935V39.4914L17.6209 35.5073L24.4639 21.0343C24.9624 19.9799 25.4028 19.5436 26.5125 19.0045L28.86 17.8638C30.0326 21.0413 32.6095 23.6897 35.9654 25.0957C36.1147 25.1583 36.2703 25.1879 36.4233 25.1879C36.8686 25.1879 37.2926 24.9371 37.4812 24.5172C37.7343 23.9531 37.4663 23.2975 36.8824 23.0529C34.0201 21.8538 31.8486 19.5716 30.9383 16.8541L33.0579 15.8242C33.8991 19.3321 37.3656 21.969 41.504 21.969C45.6424 21.969 49.109 19.3321 49.9502 15.8242L52.0698 16.8541C51.1596 19.5718 48.9879 21.8542 46.1251 23.0533C45.5412 23.2979 45.273 23.9534 45.5263 24.5176C45.7147 24.9374 46.1387 25.1882 46.5841 25.1882C46.737 25.1882 46.8927 25.1586 47.0419 25.096C50.3984 23.6902 52.9756 21.0416 54.1482 17.8638L56.4958 19.0045C57.6055 19.5436 58.0458 19.9799 58.5443 21.0342L65.3874 35.5072L58.7889 39.4914Z" fill="#00323F"/>
<path d="M41.504 23.9727H41.5032C40.8669 23.9727 40.3513 24.4711 40.3513 25.0859C40.3513 25.7008 40.8676 26.1992 41.504 26.1992C42.1405 26.1992 42.6564 25.7008 42.6564 25.0859C42.6564 24.4711 42.1405 23.9727 41.504 23.9727Z" fill="#00323F"/>
</svg>
