<svg width="83" height="83" viewBox="0 0 83 83" fill="none" xmlns="http://www.w3.org/2000/svg">
<rect width="83" height="83" fill="white"/>
<path d="M65.7278 51.4954C67.4495 51.4954 68.8503 52.8961 68.8503 54.6178C68.8503 56.3395 67.4496 57.7403 65.7278 57.7403C64.006 57.7403 62.6053 56.3396 62.6053 54.6178C62.6055 52.8961 64.0062 51.4954 65.7278 51.4954ZM65.7278 55.5784C66.2575 55.5784 66.6885 55.1475 66.6885 54.6177C66.6885 54.0879 66.2576 53.657 65.7278 53.657C65.1981 53.657 64.7671 54.0879 64.7671 54.6177C64.7673 55.1475 65.1982 55.5784 65.7278 55.5784Z" fill="#00323F"/>
<path d="M18.3656 51.4954C20.0872 51.4954 21.488 52.8961 21.488 54.6178C21.488 56.3395 20.0873 57.7403 18.3656 57.7403C16.6438 57.7403 15.2431 56.3396 15.2431 54.6178C15.2431 52.8961 16.6439 51.4954 18.3656 51.4954ZM18.3656 55.5784C18.8952 55.5784 19.3263 55.1475 19.3263 54.6177C19.3263 54.0879 18.8953 53.657 18.3656 53.657C17.8358 53.657 17.4049 54.0879 17.4049 54.6177C17.4049 55.1475 17.8359 55.5784 18.3656 55.5784Z" fill="#00323F"/>
<path d="M8.2315 45.4076V45.4002V35.6104C8.2315 34.3838 8.55966 33.1764 9.18039 32.1186L10.4338 29.9826C10.736 29.4676 11.3984 29.295 11.913 29.5975C12.4278 29.8995 12.6004 30.5619 12.2981 31.0767L11.0447 33.2127C10.6184 33.9392 10.3932 34.7682 10.3932 35.6106V35.7762H12.5636C13.8141 35.7762 14.8315 36.7935 14.8315 38.0441V44.2132C14.8315 45.4638 13.8141 46.4811 12.5636 46.4811H10.3839C10.3175 47.0144 9.86351 47.4273 9.31225 47.4273H9.26181C8.3602 47.4273 7.62677 48.1607 7.62677 49.0623V50.8137H11.9678C13.2683 48.6348 15.6488 47.1717 18.3654 47.1717C21.0821 47.1717 23.4625 48.6348 24.7631 50.8137H35.6242L34.274 47.8021C34.1254 47.4708 34.05 47.1184 34.05 46.7551V37.938H26.8254C26.2285 37.938 25.7445 37.454 25.7445 36.8571C25.7445 36.2601 26.2285 35.7762 26.8254 35.7762H31.8876V27.4857H20.0284L20.0372 35.7762H22.2191C22.816 35.7762 23.3 36.2601 23.3 36.8571C23.3 37.454 22.816 37.938 22.2191 37.938H20.0372C18.8402 37.938 17.8662 36.964 17.8662 35.767V27.1077C17.8662 26.1263 18.6645 25.3262 19.6559 25.3239H44.8083C45.2448 25.3239 45.6666 25.4817 45.9958 25.7682L57.8037 36.0417C58.1438 36.3377 58.2646 36.8136 58.1066 37.2358C57.9487 37.6581 57.5452 37.938 57.0943 37.938H36.2121V46.7551C36.2121 46.8116 36.2238 46.8662 36.2468 46.9177L37.9936 50.8137H50.3148C50.9117 50.8137 51.3957 51.2976 51.3957 51.8945C51.3957 52.4915 50.9117 52.9754 50.3148 52.9754H25.6269C25.7465 53.5042 25.8117 54.0533 25.8117 54.6178C25.8117 54.799 25.8029 54.978 25.7901 55.156H58.3035C58.2907 54.978 58.2819 54.799 58.2819 54.6178C58.2819 54.0535 58.3472 53.5042 58.4667 52.9754H54.921C54.3241 52.9754 53.8401 52.4915 53.8401 51.8945C53.8401 51.2976 54.3241 50.8137 54.921 50.8137H59.3304C60.0972 49.5288 61.2398 48.4942 62.6055 47.8605V37.3539L47.0939 23.8579C46.5781 23.4091 45.9174 23.1619 45.2337 23.1619H19.656C17.9827 23.1619 16.4169 24.0585 15.5699 25.5017L14.6326 27.0992C14.3305 27.614 13.6683 27.7863 13.1532 27.4844C12.6384 27.1823 12.4659 26.5199 12.768 26.005L13.7053 24.4076C14.9388 22.3057 17.219 21 19.6559 21H45.2336C46.439 21 47.6036 21.4357 48.5127 22.2269L64.0907 35.7805H71.4068C75.5937 35.7807 79 39.1869 79 43.3739V54.9881C79 56.2726 77.955 57.3176 76.6704 57.3176H72.6651C71.5814 60.0921 68.8813 62.0638 65.7279 62.0638C62.5744 62.0638 59.8743 60.0922 58.7906 57.3176H25.3026C24.219 60.0921 21.5189 62.0638 18.3654 62.0638C15.2118 62.0638 12.5117 60.0922 11.4281 57.3176H7.80159C6.51316 57.3176 5.46498 56.2695 5.46498 54.9812V49.0623C5.46512 47.3257 6.63696 45.8577 8.2315 45.4076V45.4076ZM12.5637 37.9378H10.3933V40.0476H12.6697V38.0439C12.6697 37.9855 12.6221 37.9378 12.5637 37.9378V37.9378ZM12.6697 44.2132V42.2095H10.3933V44.3193H12.5637C12.6221 44.3193 12.6697 44.2718 12.6697 44.2132ZM36.2125 27.4855H34.0494V35.776H36.2125V27.4855ZM44.6763 27.4855H38.3742V35.776H54.205L44.6763 27.4855ZM64.7673 37.9424V47.2357C65.0821 47.1949 65.4023 47.1717 65.728 47.1717C68.4468 47.1717 70.829 48.6373 72.1288 50.8191C72.1645 50.8155 72.2007 50.8137 72.2373 50.8137H76.8382V45.3489H73.8984C72.1003 45.3489 70.6374 43.886 70.6374 42.0878C70.6374 40.2896 72.1003 38.8268 73.8984 38.8268H74.3717C73.5185 38.2686 72.5003 37.9426 71.4068 37.9426H64.7673V37.9424ZM73.8984 40.9883C73.2923 40.9883 72.7992 41.4815 72.7992 42.0875C72.7992 42.6936 73.2924 43.1868 73.8984 43.1868H76.8334C76.8066 42.4005 76.6128 41.656 76.2849 40.9883H73.8984ZM76.6704 55.1558C76.763 55.1558 76.8382 55.0806 76.8382 54.9881V52.9753H72.9892C73.1088 53.5041 73.174 54.0532 73.174 54.6177C73.174 54.7989 73.1652 54.9779 73.1523 55.1558H76.6704ZM65.7279 59.9019C68.6415 59.9019 71.0122 57.5314 71.0122 54.6176C71.0122 51.7037 68.6417 49.3333 65.7279 49.3333C62.814 49.3333 60.4436 51.7037 60.4436 54.6176C60.4436 57.5314 62.8142 59.9019 65.7279 59.9019ZM18.3654 59.9019C21.2791 59.9019 23.6497 57.5314 23.6497 54.6176C23.6497 51.7037 21.2793 49.3333 18.3654 49.3333C15.4516 49.3333 13.0811 51.7037 13.0811 54.6176C13.0811 57.5314 15.4518 59.9019 18.3654 59.9019ZM7.80173 55.1558H10.9411C10.9283 54.9779 10.9195 54.7989 10.9195 54.6177C10.9195 54.0533 10.9848 53.5041 11.1042 52.9753H7.62692V54.981C7.62692 55.0774 7.70532 55.1558 7.80173 55.1558V55.1558Z" fill="#00323F"/>
<path d="M38.9995 41.7909C38.4026 41.7909 37.9186 41.307 37.9186 40.71C37.9186 40.1131 38.4026 39.6292 38.9995 39.6292H41.0767C41.6736 39.6292 42.1576 40.1131 42.1576 40.71C42.1576 41.307 41.6736 41.7909 41.0767 41.7909H38.9995Z" fill="#00323F"/>
</svg>

