<svg width="83" height="83" viewBox="0 0 83 83" fill="none" xmlns="http://www.w3.org/2000/svg">
<rect width="83" height="83" fill="white"/>
<path d="M71.8687 13.408L70.324 11.8633C68.4882 10.0298 65.9998 9 63.4053 9C60.8108 9 58.3223 10.0298 56.4866 11.8633L51.1018 17.2481L49.296 15.4423C48.756 14.9094 48.0486 14.5794 47.2934 14.5081C46.5382 14.4367 45.7815 14.6284 45.1513 15.0507L35.9699 21.2949C30.1972 25.2182 25.2182 30.1972 21.2949 35.9699L15.0507 45.1513C14.6284 45.7815 14.4367 46.5382 14.5081 47.2934C14.5794 48.0486 14.9094 48.756 15.4423 49.296L17.2481 51.1018L11.8633 56.4866C10.0298 58.3223 9 60.8108 9 63.4053C9 65.9998 10.0298 68.4882 11.8633 70.324L13.408 71.8687C15.2445 73.7008 17.7326 74.7297 20.3267 74.7297C22.9208 74.7297 25.4089 73.7008 27.2454 71.8687L32.6302 66.4839L34.436 68.2897C34.741 68.5922 35.1026 68.8315 35.5002 68.9939C35.8979 69.1563 36.3236 69.2386 36.7531 69.2361C37.4037 69.2351 38.0394 69.0421 38.5807 68.6813L47.7621 62.4371C53.5347 58.5138 58.5138 53.5347 62.4371 47.7621L68.6813 38.5807C69.0421 38.0394 69.2351 37.4037 69.2361 36.7531C69.2386 36.3236 69.1563 35.8979 68.9939 35.5002C68.8315 35.1026 68.5922 34.741 68.2897 34.436L66.4839 32.6302L71.8687 27.2454C73.7021 25.4096 74.732 22.9212 74.732 20.3267C74.732 17.7322 73.7021 15.2438 71.8687 13.408V13.408ZM25.7115 70.324C24.2824 71.7503 22.3458 72.5514 20.3267 72.5514C18.3076 72.5514 16.371 71.7503 14.9419 70.324L13.408 68.7901C11.9817 67.361 11.1805 65.4244 11.1805 63.4053C11.1805 61.3862 11.9817 59.4495 13.408 58.0205L18.7928 52.6356L19.5543 53.408L14.1695 58.7928C12.9472 60.0167 12.2607 61.6756 12.2607 63.4053C12.2607 65.135 12.9472 66.7939 14.1695 68.0177L15.7143 69.5625C16.9396 70.7819 18.598 71.4664 20.3267 71.4664C22.0554 71.4664 23.7138 70.7819 24.9392 69.5625L30.324 64.1776L31.0963 64.9391L25.7115 70.324ZM21.0991 54.9419L28.7901 62.6329L23.4053 68.0177C22.588 68.8327 21.4809 69.2903 20.3267 69.2903C19.1725 69.2903 18.0654 68.8327 17.2481 68.0177L15.7143 66.4839C14.8993 65.6666 14.4417 64.5595 14.4417 63.4053C14.4417 62.2511 14.8993 61.144 15.7143 60.3267L21.0991 54.9419ZM66.7449 35.9808C66.9242 36.1598 67.0353 36.3958 67.0591 36.648C67.083 36.9002 67.018 37.1529 66.8755 37.3623L60.6422 46.5328C56.8674 52.0807 52.0807 56.8674 46.5328 60.6422L37.3623 66.8755C37.1529 67.018 36.9002 67.083 36.648 67.0591C36.3958 67.0353 36.1598 66.9242 35.9808 66.745L31.0963 61.8714V61.8605L26.4839 57.2481L16.987 47.7512C16.8078 47.5722 16.6967 47.3362 16.6729 47.084C16.649 46.8317 16.714 46.5791 16.8565 46.3697L23.0898 37.1991C26.8646 31.6512 31.6512 26.8646 37.1991 23.0898L46.3697 16.8565C46.5521 16.732 46.7688 16.6673 46.9897 16.6716C47.2751 16.6728 47.5486 16.7861 47.7512 16.987L52.6356 21.8606V21.8714L66.7449 35.9808ZM54.9419 21.0991L60.3267 15.7143C61.144 14.8993 62.2511 14.4417 63.4053 14.4417C64.5595 14.4417 65.6666 14.8993 66.4839 15.7143L68.0177 17.2481C68.8327 18.0654 69.2903 19.1725 69.2903 20.3267C69.2903 21.4809 68.8327 22.588 68.0177 23.4053L62.6329 28.7901L54.9419 21.0991ZM64.9391 31.0963L64.1776 30.324L69.5625 24.9392C70.7848 23.7153 71.4713 22.0564 71.4713 20.3267C71.4713 18.597 70.7848 16.9381 69.5625 15.7143L68.0177 14.1695C66.7924 12.9501 65.134 12.2656 63.4053 12.2656C61.6766 12.2656 60.0182 12.9501 58.7928 14.1695L53.408 19.5543L52.6356 18.7928L58.0204 13.408C59.4495 11.9817 61.3862 11.1805 63.4053 11.1805C65.4244 11.1805 67.361 11.9817 68.7901 13.408L70.324 14.9419C71.7503 16.371 72.5514 18.3076 72.5514 20.3267C72.5514 22.3458 71.7503 24.2824 70.324 25.7115L64.9391 31.0963Z" fill="#00323F"/>
<path d="M56.4811 31.8664C56.2771 31.6624 56.0005 31.5479 55.712 31.5479C55.4236 31.5479 55.1469 31.6624 54.9429 31.8664L31.8665 54.9428C31.7626 55.0431 31.6798 55.1632 31.6227 55.2959C31.5657 55.4286 31.5357 55.5713 31.5345 55.7158C31.5332 55.8602 31.5607 56.0035 31.6154 56.1372C31.6701 56.2709 31.7509 56.3923 31.853 56.4945C31.9552 56.5966 32.0766 56.6774 32.2103 56.7321C32.344 56.7868 32.4873 56.8143 32.6317 56.813C32.7762 56.8118 32.9189 56.7818 33.0516 56.7248C33.1843 56.6677 33.3044 56.5849 33.4047 56.481L56.4811 33.4046C56.6851 33.2006 56.7996 32.9239 56.7996 32.6355C56.7996 32.347 56.6851 32.0704 56.4811 31.8664V31.8664Z" fill="#00323F"/>
<path d="M51.8652 27.2511C51.6612 27.0472 51.3845 26.9326 51.0961 26.9326C50.8076 26.9326 50.531 27.0472 50.327 27.2511L27.2506 50.3275C27.1467 50.4279 27.0638 50.5479 27.0068 50.6806C26.9498 50.8134 26.9198 50.9561 26.9185 51.1005C26.9172 51.245 26.9448 51.3882 26.9995 51.5219C27.0542 51.6556 27.1349 51.7771 27.2371 51.8792C27.3392 51.9814 27.4607 52.0621 27.5944 52.1168C27.7281 52.1715 27.8713 52.1991 28.0158 52.1978C28.1602 52.1965 28.3029 52.1665 28.4357 52.1095C28.5684 52.0525 28.6884 51.9696 28.7888 51.8657L51.8652 28.7893C52.0691 28.5853 52.1837 28.3087 52.1837 28.0202C52.1837 27.7318 52.0691 27.4551 51.8652 27.2511V27.2511Z" fill="#00323F"/>
<path d="M47.2499 22.6352C47.0459 22.4312 46.7693 22.3167 46.4808 22.3167C46.1924 22.3167 45.9157 22.4312 45.7117 22.6352L22.6353 45.7126C22.5314 45.813 22.4486 45.933 22.3915 46.0658C22.3345 46.1985 22.3045 46.3412 22.3033 46.4857C22.302 46.6301 22.3295 46.7734 22.3842 46.907C22.4389 47.0407 22.5197 47.1622 22.6218 47.2643C22.724 47.3665 22.8454 47.4473 22.9791 47.5019C23.1128 47.5566 23.2561 47.5842 23.4005 47.5829C23.545 47.5817 23.6877 47.5517 23.8204 47.4946C23.9531 47.4376 24.0732 47.3548 24.1735 47.2509L47.2499 24.1734C47.4539 23.9694 47.5684 23.6927 47.5684 23.4043C47.5684 23.1158 47.4539 22.8392 47.2499 22.6352V22.6352Z" fill="#00323F"/>
<path d="M36.482 59.5585C36.3781 59.6589 36.2952 59.7789 36.2382 59.9116C36.1812 60.0443 36.1512 60.1871 36.1499 60.3315C36.1487 60.476 36.1762 60.6192 36.2309 60.7529C36.2856 60.8866 36.3664 61.0081 36.4685 61.1102C36.5707 61.2123 36.6921 61.2931 36.8258 61.3478C36.9595 61.4025 37.1028 61.43 37.2472 61.4288C37.3916 61.4275 37.5344 61.3975 37.6671 61.3405C37.7998 61.2835 37.9199 61.2006 38.0202 61.0967L61.0966 38.0192C61.2005 37.9189 61.2834 37.7989 61.3404 37.6661C61.3974 37.5334 61.4274 37.3907 61.4287 37.2462C61.4299 37.1018 61.4024 36.9585 61.3477 36.8248C61.293 36.6911 61.2123 36.5697 61.1101 36.4675C61.008 36.3654 60.8865 36.2846 60.7528 36.2299C60.6191 36.1752 60.4759 36.1477 60.3314 36.149C60.187 36.1502 60.0442 36.1802 59.9115 36.2372C59.7788 36.2943 59.6588 36.3771 59.5584 36.481L36.482 59.5585Z" fill="#00323F"/>
</svg>
