<svg width="52" height="47" fill="none" xmlns="http://www.w3.org/2000/svg"><g clip-path="url(#a)" fill="#fff"><path d="M18.942 45.433a1.07 1.07 0 0 0-.713-.269 1.07 1.07 0 0 0-.714.269.885.885 0 0 0-.296.649c0 .242.108.478.296.649.188.17.448.269.714.269.265 0 .526-.098.713-.269a.884.884 0 0 0 .296-.649.884.884 0 0 0-.296-.649zM36.056 38.111c-.558 0-1.01.411-1.01.918 0 1.708-1.528 3.098-3.406 3.098-.558 0-1.01.411-1.01.918 0 .507.452.918 1.01.918 2.991 0 5.425-2.213 5.425-4.934 0-.507-.452-.918-1.01-.918z"/><path d="M43.433 0c-4.676 0-8.48 3.46-8.48 7.71v11.017c0 3.94 3.27 7.198 7.47 7.654v8.043H38.79c-1.59-2.035-4.202-3.366-7.15-3.366-.772 0-1.52.092-2.235.263L26.04 23.5h4.105c.237 0 .445.138.519.343a.451.451 0 0 1-.078.445.55.55 0 0 1-.441.204h-1.032c-.557 0-1.01.412-1.01.918 0 .508.453.918 1.01.918h1.032c.83 0 1.587-.35 2.075-.961.488-.611.62-1.374.364-2.092-.345-.963-1.325-1.61-2.44-1.61H24.56c-.334 0-.645.149-.834.4a.848.848 0 0 0-.106.852l1.896 4.403h-8.39l-.759-1.58-.287-.665c-.152-.351-.524-.582-.94-.582H10.75c-.848 0-1.64.38-2.119 1.018a2.152 2.152 0 0 0-.268 2.165c.388.9 1.325 1.48 2.387 1.48h3.346l-1.624 2.558a9.464 9.464 0 0 0-3.479-.655c-4.833 0-8.765 3.575-8.765 7.97 0 2.465 1.237 4.672 3.175 6.135H1.237c-.557 0-1.009.411-1.009.918 0 .507.452.918 1.01.918h7.755c4.492 0 8.205-3.089 8.707-7.053h3.953c.34 0 .658-.156.845-.415a.847.847 0 0 0 .08-.87l-4.57-9.505h8.297l1.221 2.836c-2.765 1.342-4.651 3.992-4.651 7.036 0 2.465 1.236 4.672 3.175 6.135h-3.582c-.557 0-1.01.411-1.01.918 0 .507.453.918 1.01.918h9.172c4.833 0 8.765-3.576 8.765-7.97 0-.974-.194-1.907-.546-2.77H47.1c.558 0 1.01-.411 1.01-.918 0-.507-.452-.918-1.01-.918h-2.658V26.38c4.201-.456 7.47-3.713 7.47-7.654V7.71c0-4.252-3.804-7.711-8.48-7.711zM10.75 27.32a.544.544 0 0 1-.508-.314.449.449 0 0 1 .057-.46c.061-.082.2-.218.451-.218h3.701l.428.993H10.75zM8.993 45.165c-3.72 0-6.746-2.752-6.746-6.135 0-3.382 3.026-6.135 6.746-6.135a7.3 7.3 0 0 1 2.46.425L8.12 38.57a.847.847 0 0 0 0 .918c.18.284.514.46.874.46h3.254c-.431 1.26-1.727 2.18-3.254 2.18-.557 0-1.01.41-1.01.917 0 .507.453.918 1.01.918 2.647 0 4.855-1.733 5.33-4.016h1.34c-.488 2.949-3.293 5.217-6.67 5.217zm1.748-7.053 2.46-3.872c1.296.944 2.204 2.312 2.463 3.872h-4.922zm9.369 0H17.7c-.284-2.237-1.59-4.195-3.481-5.477l1.854-2.92 4.037 8.397zm11.53 7.053c-3.72 0-6.747-2.752-6.747-6.135 0-2.267 1.36-4.248 3.376-5.31l2.43 5.645c.157.362.538.584.941.584.122 0 .247-.02.368-.064.519-.185.775-.717.572-1.19l-2.431-5.647c.48-.099.978-.153 1.49-.153 3.72 0 6.747 2.753 6.747 6.135 0 3.383-3.026 6.135-6.746 6.135zm18.253-26.437c0 2.927-2.366 5.36-5.45 5.802v-3.817l2.69-2.611a.86.86 0 0 0-.048-1.298 1.082 1.082 0 0 0-1.427.043l-1.216 1.18v-2.953l2.69-2.612a.86.86 0 0 0-.047-1.297 1.082 1.082 0 0 0-1.427.042l-1.216 1.181v-1.6c0-.508-.452-.919-1.01-.919-.557 0-1.009.411-1.009.918v4.134l-1.039-1.01a1.082 1.082 0 0 0-1.427-.042.86.86 0 0 0-.047 1.298l2.513 2.44v6.923c-3.084-.442-5.45-2.875-5.45-5.802V7.71c0-3.24 2.897-5.875 6.46-5.875 3.562 0 6.46 2.635 6.46 5.875v11.016zM50.903 34.424h-.014c-.557 0-1.009.41-1.009.918 0 .507.452.918 1.01.918h.013c.557 0 1.01-.411 1.01-.918 0-.507-.453-.918-1.01-.918z"/><path d="M24.337 12.73h-1.675a4.997 4.997 0 0 0 .611-2.382c0-2.972-2.66-5.39-5.928-5.39-2.435 0-4.566 1.35-5.468 3.307a4.684 4.684 0 0 0-1.874-.39c-2.384 0-4.324 1.765-4.324 3.933 0 .876.311 1.706.9 2.4.191.225.486.357.8.357h16.958c.558 0 1.01-.41 1.01-.918 0-.507-.452-.918-1.01-.918zm-4.09 0H7.933a1.923 1.923 0 0 1-.234-.922c0-1.156 1.034-2.096 2.305-2.096.651 0 1.275.252 1.712.693.265.267.676.369 1.053.261.377-.108.65-.406.699-.762.243-1.774 1.91-3.111 3.878-3.111 2.155 0 3.91 1.595 3.91 3.555 0 .88-.364 1.731-1.007 2.381z"/></g><defs><clipPath id="a"><path fill="#fff" transform="translate(.228)" d="M0 0h51.684v47H0z"/></clipPath></defs></svg>